<svg xmlns="http://www.w3.org/2000/svg" viewBox="0 0 1997.28 446.48"><defs><style>.cls-1{fill:#ffdd0f;}.cls-2{fill:#f09300;}.cls-3{fill:#bd1522;}.cls-4{fill:#cf1e20;}.cls-5{fill:#fab234;}.cls-6{fill:#eb6e04;}.cls-7{fill:#1f8bb9;}.cls-8{fill:#2daae2;}.cls-9{font-size:175.19px;fill:#0e3a6c;}.cls-12,.cls-9{font-family:Calibri, Calibri;}.cls-10{letter-spacing:-0.01em;}.cls-11{letter-spacing:-0.01em;}.cls-12{font-size:105.16px;fill:#143d62;}.cls-13{fill:none;stroke:#143d62;stroke-miterlimit:10;stroke-width:5px;}</style></defs><title>logo caribiena horisontal</title><g id="Capa_2" data-name="Capa 2"><ellipse class="cls-1" cx="149.12" cy="136.39" rx="132.75" ry="136.39"/><polygon class="cls-2" points="200.04 74.56 414.62 60.01 390.98 387.34 236.41 387.34 200.04 74.56"/><polygon class="cls-3" points="141.84 389.16 120.02 147.3 281.87 158.21 281.87 396.43 141.84 389.16"/><polygon class="cls-4" points="210.95 152.75 281.87 156.39 281.87 396.43 240.04 396.43 210.95 152.75"/><polygon class="cls-5" points="354.61 132.75 545.55 107.29 529.18 380.07 354.61 389.16 354.61 132.75"/><polygon class="cls-6" points="354.61 132.75 407.35 125.48 389.16 387.34 354.61 387.34 354.61 132.75"/><path class="cls-7" d="M666.71,487.53c-20.91,4.6-308.06,64-640.71-62.1,0,0,197.23,27.48,378.19,18.4C423.3,456.25,496,493.91,666.71,487.53Z" transform="translate(-26 -59)"/><path class="cls-8" d="M667.93,372.69V487.26l-1.22.27C496,493.91,423.3,456.25,404.19,443.83,514,438.34,617.79,419.39,667.93,372.69Z" transform="translate(-26 -59)"/><text class="cls-9" transform="translate(648.94 243.52)">CARIB<tspan class="cls-10" x="429.34" y="0">E</tspan><tspan x="513.01" y="0">AN SE</tspan><tspan class="cls-11" x="933.11" y="0">R</tspan><tspan x="1025.84" y="0">VICE</tspan></text><text class="cls-12" transform="translate(1019.17 364.14)">INMOBILIARIA</text><line class="cls-13" x1="674.4" y1="330.03" x2="985.37" y2="330.03"/><line class="cls-13" x1="1665.49" y1="330.03" x2="1976.45" y2="330.03"/></g></svg>