<svg xmlns="http://www.w3.org/2000/svg" viewBox="0 0 1348.34 758"><defs><style>.cls-1{fill:#ffdd0f;}.cls-2{fill:#f09300;}.cls-3{fill:#bd1522;}.cls-4{fill:#cf1e20;}.cls-5{fill:#fab234;}.cls-6{fill:#eb6e04;}.cls-7{fill:#1f8bb9;}.cls-8{fill:#2daae2;}.cls-9{font-size:175.19px;fill:#0e3a6c;}.cls-12,.cls-9{font-family:Calibri, Calibri;}.cls-10{letter-spacing:-0.01em;}.cls-11{letter-spacing:-0.01em;}.cls-12{font-size:105.16px;fill:#143d62;}.cls-13{fill:none;stroke:#143d62;stroke-miterlimit:10;stroke-width:5px;}</style></defs><title>logo caribiena vertical</title><g id="Capa_2" data-name="Capa 2"><ellipse class="cls-1" cx="469.17" cy="136.39" rx="132.75" ry="136.39"/><polygon class="cls-2" points="520.09 74.56 734.68 60.01 711.03 387.34 556.46 387.34 520.09 74.56"/><polygon class="cls-3" points="461.9 389.16 440.08 147.3 601.92 158.21 601.92 396.43 461.9 389.16"/><polygon class="cls-4" points="531 152.75 601.92 156.39 601.92 396.43 560.1 396.43 531 152.75"/><polygon class="cls-5" points="674.66 132.75 865.61 107.29 849.24 380.07 674.66 389.16 674.66 132.75"/><polygon class="cls-6" points="674.66 132.75 727.4 125.48 709.22 387.34 674.66 387.34 674.66 132.75"/><path class="cls-7" d="M971.71,446.53c-20.91,4.6-308.06,64-640.71-62.1,0,0,197.23,27.48,378.19,18.4C728.3,415.25,801,452.91,971.71,446.53Z" transform="translate(-10.94 -18)"/><path class="cls-8" d="M972.93,331.69V446.26l-1.22.27C801,452.91,728.3,415.25,709.19,402.83,819,397.34,922.79,378.39,972.93,331.69Z" transform="translate(-10.94 -18)"/><text class="cls-9" transform="translate(0 604.52)">CARIB<tspan class="cls-10" x="429.34" y="0">E</tspan><tspan x="513.01" y="0">AN SE</tspan><tspan class="cls-11" x="933.11" y="0">R</tspan><tspan x="1025.84" y="0">VICE</tspan></text><text class="cls-12" transform="translate(370.23 725.14)">INMOBILIARIA</text><line class="cls-13" x1="25.46" y1="691.03" x2="336.42" y2="691.03"/><line class="cls-13" x1="1016.54" y1="691.03" x2="1327.51" y2="691.03"/></g></svg>