<svg id="Capa_1" data-name="Capa 1" xmlns="http://www.w3.org/2000/svg" width="1976" height="446.5" viewBox="0 0 1976 446.5"><defs><style>.cls-1{fill:#ffdd0f;}.cls-2{fill:#f09300;}.cls-3{fill:#bd1522;}.cls-4{fill:#cf1e20;}.cls-5{fill:#fab234;}.cls-6{fill:#eb6e04;}.cls-7{fill:#1f8bb9;}.cls-8{fill:#2daae2;}.cls-9{isolation:isolate;}.cls-10{fill:#143d62;}.cls-11{fill:none;stroke:#143d62;stroke-miterlimit:10;stroke-width:5px;}</style></defs><title>logo_horizontal</title><ellipse class="cls-1" cx="149.12" cy="136.39" rx="132.75" ry="136.39"/><polygon class="cls-2" points="200.04 74.56 414.62 60.01 390.98 387.34 236.41 387.34 200.04 74.56"/><polygon class="cls-3" points="141.84 389.16 120.02 147.3 281.87 158.21 281.87 396.43 141.84 389.16"/><polygon class="cls-4" points="210.95 152.75 281.87 156.39 281.87 396.43 240.04 396.43 210.95 152.75"/><polygon class="cls-5" points="354.61 132.75 545.55 107.29 529.18 380.07 354.61 389.16 354.61 132.75"/><polygon class="cls-6" points="354.61 132.75 407.35 125.48 389.16 387.34 354.61 387.34 354.61 132.75"/><path class="cls-7" d="M659.71,442.53c-20.91,4.6-308.06,64-640.71-62.1,0,0,197.23,27.48,378.19,18.4C416.3,411.25,489,448.91,659.71,442.53Z" transform="translate(-19 -14)"/><path class="cls-8" d="M660.93,327.69V442.26l-1.22.27C489,448.91,416.3,411.25,397.19,398.83,507,393.34,610.79,374.39,660.93,327.69Z" transform="translate(-19 -14)"/><g class="cls-9"><path class="cls-10" d="M1056,377.41a1.28,1.28,0,0,1-.21.73,1.38,1.38,0,0,1-.73.5,7.51,7.51,0,0,1-1.39.31,14.49,14.49,0,0,1-2.17.13,14.75,14.75,0,0,1-2.15-.13,7.58,7.58,0,0,1-1.41-.31,1.38,1.38,0,0,1-.73-.5,1.28,1.28,0,0,1-.21-.73v-65a1.18,1.18,0,0,1,.24-.73,1.55,1.55,0,0,1,.78-.5,9.54,9.54,0,0,1,1.41-.31,13.78,13.78,0,0,1,2.07-.13,14.49,14.49,0,0,1,2.17.13,8.42,8.42,0,0,1,1.39.31,1.43,1.43,0,0,1,.73.5,1.3,1.3,0,0,1,.21.73Z" transform="translate(-19 -14)"/><path class="cls-10" d="M1124,374.49c-.28.69-.4,1.27-.63,1.75a3.46,3.46,0,0,1-.9,1.18,3.52,3.52,0,0,1-1.25.67l-1.38.39h-3.12a9.66,9.66,0,0,1-2.43-.28,5.57,5.57,0,0,1-2-1,10.81,10.81,0,0,1-1.87-2,27.5,27.5,0,0,1-2-3.3l-20.34-37.93c-1.06-2-2.14-4-3.22-6.16s-2.08-4.23-3-6.26h-.11q.11,3.7.16,7.58t0,7.68v39.34a1.19,1.19,0,0,1-.22.68,1.38,1.38,0,0,1-.75.51,8.52,8.52,0,0,1-1.38.31,18.34,18.34,0,0,1-4.36,0,7.61,7.61,0,0,1-1.35-.31,1.37,1.37,0,0,1-.72-.51,1.19,1.19,0,0,1-.22-.68V315.25a3.34,3.34,0,0,1,1.19-2.9,4.28,4.28,0,0,1,2.59-.87h4.43a12,12,0,0,1,2.62.25,5.8,5.8,0,0,1,1.89.85,7.15,7.15,0,0,1,1.62,1.63,21.32,21.32,0,0,1,1.64,2.62l15.88,28.94c1,1.76,1.92,3.49,2.84,5.17s1.78,3.33,2.63,5,1.67,3.24,2.5,4.82,1.64,3.16,2.45,4.76H1115s-.11-4.88-.13-7.8,0-5.74.09-8.45V313.18a.62.62,0,0,1,.1-.66,1.72,1.72,0,0,1,.73-.54,4.63,4.63,0,0,1,1.36-.34,21,21,0,0,1,2.19-.1,20.12,20.12,0,0,1,2.06.1,4.25,4.25,0,0,1,1.35.34,1.71,1.71,0,0,1,.71.54,2.44,2.44,0,0,0,.5.66Z" transform="translate(-19 -14)"/><path class="cls-10" d="M1214,377.19a1.21,1.21,0,0,1-.22.73,1.44,1.44,0,0,1-.75.49,9,9,0,0,1-1.38.31,14.19,14.19,0,0,1-2.18.13,14.64,14.64,0,0,1-2.13-.13,8.11,8.11,0,0,1-1.4-.31,1.51,1.51,0,0,1-.73-.49,1.28,1.28,0,0,1-.21-.73V318.48h.52l-23.86,56.2a1.53,1.53,0,0,1-.45.59,2.37,2.37,0,0,1-.83.43,7.16,7.16,0,0,1-1.31.24c-.51.05-1.11.08-1.81.08a16.53,16.53,0,0,1-1.88-.1,8.06,8.06,0,0,1-1.31-.27,2.35,2.35,0,0,1-.81-.43,1.25,1.25,0,0,1-.39-.54l-22.82-56.2h0v55.95a1.1,1.1,0,0,1-.22.69,1.44,1.44,0,0,1-.75.48,9.38,9.38,0,0,1-1.4.29,14.89,14.89,0,0,1-2.21.13,14.52,14.52,0,0,1-2.16-.13,8.39,8.39,0,0,1-1.37-.29,1.28,1.28,0,0,1-.7-.48,1.21,1.21,0,0,1-.19-.69V315.35a3.52,3.52,0,0,1,1.17-3,4.22,4.22,0,0,1,2.6-.89h4.91a12.49,12.49,0,0,1,3,.31,6.48,6.48,0,0,1,2.23,1,5.82,5.82,0,0,1,1.6,1.71,11.92,11.92,0,0,1,1.11,2.43L1177,365.48h.27l20.14-48.4a13.94,13.94,0,0,1,1.28-2.65,6.83,6.83,0,0,1,1.51-1.73,5.24,5.24,0,0,1,1.84-.93,8.58,8.58,0,0,1,2.33-.29h5.8a5,5,0,0,1,1.51.23,3.17,3.17,0,0,1,1.23.73,3.83,3.83,0,0,1,.82,1.24,4.77,4.77,0,0,1,.32,1.84Z" transform="translate(-19 -14)"/><path class="cls-10" d="M1287,344.15a51.4,51.4,0,0,1-1.9,14.53,30.56,30.56,0,0,1-5.67,11,24.86,24.86,0,0,1-9.48,7,33.69,33.69,0,0,1-13.3,2.44,34.15,34.15,0,0,1-13-2.24,22.81,22.81,0,0,1-9-6.49,27.74,27.74,0,0,1-5.31-10.58,54.48,54.48,0,0,1-1.75-14.53,50.11,50.11,0,0,1,1.9-14.28,29.83,29.83,0,0,1,5.7-10.91,25.29,25.29,0,0,1,9.5-6.93,33.51,33.51,0,0,1,13.3-2.44,33.88,33.88,0,0,1,12.78,2.21,23.23,23.23,0,0,1,9.07,6.44,27.48,27.48,0,0,1,5.39,10.48A52.48,52.48,0,0,1,1287,344.15Zm-9.35.61a51.85,51.85,0,0,0-1-10.5,24,24,0,0,0-3.33-8.42,16.13,16.13,0,0,0-6.23-5.57,21,21,0,0,0-9.64-2,19.77,19.77,0,0,0-9.64,2.15,18.2,18.2,0,0,0-6.34,5.76,23.9,23.9,0,0,0-3.48,8.39,47.15,47.15,0,0,0-1,10.09,55.6,55.6,0,0,0,1,10.78,24.07,24.07,0,0,0,3.28,8.5,15.78,15.78,0,0,0,6.18,5.55,21.24,21.24,0,0,0,9.72,2,20.07,20.07,0,0,0,9.74-2.15,17.41,17.41,0,0,0,6.36-5.83,24.74,24.74,0,0,0,3.44-8.5A49.33,49.33,0,0,0,1277.6,344.76Z" transform="translate(-19 -14)"/><path class="cls-10" d="M1344.51,358.56a20.16,20.16,0,0,1-.79,5.74,17,17,0,0,1-2.22,4.71,16.5,16.5,0,0,1-3.45,3.68,20,20,0,0,1-4.54,2.65,25.65,25.65,0,0,1-5.4,1.6,36.2,36.2,0,0,1-6.61.54h-17.24a3.61,3.61,0,0,1-2.22-.79,3.3,3.3,0,0,1-1-2.78V315.05a3.3,3.3,0,0,1,1-2.78,3.61,3.61,0,0,1,2.22-.79h15a35.12,35.12,0,0,1,9.69,1.12,17.11,17.11,0,0,1,6.3,3.27,13.56,13.56,0,0,1,3.8,5.25,18.44,18.44,0,0,1,1.27,7,17.43,17.43,0,0,1-.56,4.49,14.56,14.56,0,0,1-1.66,4,13.23,13.23,0,0,1-2.75,3.24,14.73,14.73,0,0,1-3.8,2.35,15.74,15.74,0,0,1,5,1.86,15.57,15.57,0,0,1,4.11,3.44,16.07,16.07,0,0,1,2.78,4.9A17.91,17.91,0,0,1,1344.51,358.56Zm-12.3-29.37a13.87,13.87,0,0,0-.68-4.46,8.34,8.34,0,0,0-2.15-3.39,9.72,9.72,0,0,0-3.82-2.13,21.57,21.57,0,0,0-6.24-.73H1310v22h10.27a14.58,14.58,0,0,0,5.65-.92,10,10,0,0,0,3.57-2.47,9.5,9.5,0,0,0,2.06-3.62A14,14,0,0,0,1332.21,329.19Zm3.06,30.24a13.21,13.21,0,0,0-.93-5.14,9.77,9.77,0,0,0-2.72-3.73,12,12,0,0,0-4.48-2.3,24.79,24.79,0,0,0-6.77-.78H1310v23h12.58a17.18,17.18,0,0,0,5.19-.71,11.54,11.54,0,0,0,3.9-2.09,9.73,9.73,0,0,0,2.64-3.45A11.3,11.3,0,0,0,1335.27,359.43Z" transform="translate(-19 -14)"/><path class="cls-10" d="M1367,377.41a1.31,1.31,0,0,1-.21.74,1.37,1.37,0,0,1-.73.49,7.41,7.41,0,0,1-1.39.32,16,16,0,0,1-2.17.13,16.3,16.3,0,0,1-2.15-.13,7.48,7.48,0,0,1-1.41-.32,1.37,1.37,0,0,1-.73-.49,1.31,1.31,0,0,1-.21-.74v-65a1.22,1.22,0,0,1,.23-.73,1.57,1.57,0,0,1,.79-.5,8.41,8.41,0,0,1,1.41-.31,13.78,13.78,0,0,1,2.07-.13,14.49,14.49,0,0,1,2.17.13,7.51,7.51,0,0,1,1.39.31,1.38,1.38,0,0,1,.73.5,1.28,1.28,0,0,1,.21.73Z" transform="translate(-19 -14)"/><path class="cls-10" d="M1419.07,374.29A11.71,11.71,0,0,1,1419,376a3.74,3.74,0,0,1-.33,1.18,1.76,1.76,0,0,1-.56.72,2.94,2.94,0,0,0-.8.57H1387.9a9.59,9.59,0,0,1-2.23-1.14,2.4,2.4,0,0,1-.67-2.8V313c-.39-.27-.32-.51-.18-.72a1.43,1.43,0,0,1,.72-.49,8.17,8.17,0,0,1,1.38-.3,14.26,14.26,0,0,1,2.11-.13,14,14,0,0,1,2.13.13,8.34,8.34,0,0,1,1.36.3,1.43,1.43,0,0,1,.72.49,1.49,1.49,0,0,0,.76.72v57.45h23.27a1.51,1.51,0,0,1,.8.24,1.79,1.79,0,0,1,.56.67,3.21,3.21,0,0,1,.33,1.15A12.26,12.26,0,0,1,1419.07,374.29Z" transform="translate(-19 -14)"/><path class="cls-10" d="M1438,377.41a1.31,1.31,0,0,1-.21.74,1.37,1.37,0,0,1-.73.49,7.41,7.41,0,0,1-1.39.32,16,16,0,0,1-2.17.13,16.3,16.3,0,0,1-2.15-.13,7.48,7.48,0,0,1-1.41-.32,1.37,1.37,0,0,1-.73-.49,1.31,1.31,0,0,1-.21-.74v-65a1.22,1.22,0,0,1,.23-.73,1.57,1.57,0,0,1,.79-.5,8.41,8.41,0,0,1,1.41-.31,13.78,13.78,0,0,1,2.07-.13,14.49,14.49,0,0,1,2.17.13,7.51,7.51,0,0,1,1.39.31,1.38,1.38,0,0,1,.73.5,1.28,1.28,0,0,1,.21.73Z" transform="translate(-19 -14)"/><path class="cls-10" d="M1505.08,374.81a6.51,6.51,0,0,1,.43,1.82,1.26,1.26,0,0,1-.38,1.05,2.52,2.52,0,0,1-1.36.46,24.18,24.18,0,0,1-2.55.11c-1.06,0-1.9,0-2.54-.08a5.56,5.56,0,0,1-1.43-.26,1.46,1.46,0,0,1-.72-.49,3.64,3.64,0,0,1-.44-.77l-5.7-16.17h-27.63l-5.44,16a2.56,2.56,0,0,1-.41.79,1.9,1.9,0,0,1-.74.57,4.8,4.8,0,0,1-1.39.33,20.81,20.81,0,0,1-2.34.11,20,20,0,0,1-2.44-.13,2.48,2.48,0,0,1-1.33-.49,1.28,1.28,0,0,1-.36-1.05,6.3,6.3,0,0,1,.44-1.83L1471,313a2.83,2.83,0,0,1,.54-.92,2.15,2.15,0,0,1,1-.56,7,7,0,0,1,1.64-.29c.67-.05,1.51-.07,2.54-.07s2,0,2.72.07a7.83,7.83,0,0,1,1.75.29,2.24,2.24,0,0,1,1,.59,2.85,2.85,0,0,1,.56.95Zm-28.61-54.33h0l-11.41,33h23Z" transform="translate(-19 -14)"/><path class="cls-10" d="M1561.16,376.91a1.54,1.54,0,0,1-.16.73,1.19,1.19,0,0,1-.68.51,5.79,5.79,0,0,1-1.46.31,24,24,0,0,1-2.51.1,19.39,19.39,0,0,1-2.23-.1,5.08,5.08,0,0,1-1.38-.33,2,2,0,0,1-.82-.65,4.12,4.12,0,0,1-.49-1l-6.23-15.74q-1.1-2.68-2.28-4.93a16,16,0,0,0-2.8-3.87,11.64,11.64,0,0,0-3.82-2.53,13.88,13.88,0,0,0-5.28-.9h-6v28.43a1.22,1.22,0,0,1-.23.73,1.65,1.65,0,0,1-.74.49,7.54,7.54,0,0,1-1.36.31,19.68,19.68,0,0,1-4.34,0,8.42,8.42,0,0,1-1.39-.31,1.42,1.42,0,0,1-.73-.49,1.28,1.28,0,0,1-.21-.73V315.09a3.3,3.3,0,0,1,1.07-2.81,3.79,3.79,0,0,1,2.28-.8h14.39c1.71,0,3.13,0,4.26.13s2.16.18,3.07.28A26.47,26.47,0,0,1,1548,314a16.42,16.42,0,0,1,5,3.66,14.77,14.77,0,0,1,3.06,5.09,18.7,18.7,0,0,1,1,6.32,18.41,18.41,0,0,1-.92,6,14.55,14.55,0,0,1-2.64,4.7,17.72,17.72,0,0,1-4.13,3.53,26.8,26.8,0,0,1-5.39,2.53,12.67,12.67,0,0,1,3,1.83,15.37,15.37,0,0,1,2.54,2.66,24.43,24.43,0,0,1,2.23,3.56q1,2,2.09,4.54l6.07,14.71c.49,1.23.8,2.1.94,2.6A4.68,4.68,0,0,1,1561.16,376.91Zm-14.36-46.48a11.59,11.59,0,0,0-1.72-6.48,9.65,9.65,0,0,0-5.75-3.81,15.82,15.82,0,0,0-2.85-.51c-1.06-.1-2.45-.15-4.16-.15H1525v22h8.48a19,19,0,0,0,5.93-.83,11.85,11.85,0,0,0,4.16-2.32,9.16,9.16,0,0,0,2.45-3.51A12.1,12.1,0,0,0,1546.8,330.43Z" transform="translate(-19 -14)"/><path class="cls-10" d="M1582,377.41a1.31,1.31,0,0,1-.21.74,1.37,1.37,0,0,1-.73.49,7.41,7.41,0,0,1-1.39.32,16,16,0,0,1-2.17.13,16.3,16.3,0,0,1-2.15-.13,7.48,7.48,0,0,1-1.41-.32,1.37,1.37,0,0,1-.73-.49,1.31,1.31,0,0,1-.21-.74v-65a1.22,1.22,0,0,1,.23-.73,1.57,1.57,0,0,1,.79-.5,8.41,8.41,0,0,1,1.41-.31,13.78,13.78,0,0,1,2.07-.13,14.49,14.49,0,0,1,2.17.13,7.51,7.51,0,0,1,1.39.31,1.38,1.38,0,0,1,.73.5,1.28,1.28,0,0,1,.21.73Z" transform="translate(-19 -14)"/><path class="cls-10" d="M1649.52,374.81a6.17,6.17,0,0,1,.43,1.82,1.26,1.26,0,0,1-.38,1.05,2.52,2.52,0,0,1-1.36.46,24.1,24.1,0,0,1-2.54.11c-1.07,0-1.91,0-2.55-.08a5.56,5.56,0,0,1-1.43-.26,1.46,1.46,0,0,1-.72-.49,3.64,3.64,0,0,1-.44-.77l-5.7-16.17h-27.62l-5.45,16a2.56,2.56,0,0,1-.41.79,1.9,1.9,0,0,1-.74.57,4.8,4.8,0,0,1-1.39.33,20.74,20.74,0,0,1-2.33.11,19.76,19.76,0,0,1-2.44-.13,2.49,2.49,0,0,1-1.34-.49,1.28,1.28,0,0,1-.36-1.05,6.3,6.3,0,0,1,.44-1.83L1615.47,313a2.83,2.83,0,0,1,.54-.92,2.15,2.15,0,0,1,1-.56,7,7,0,0,1,1.64-.29c.67-.05,1.52-.07,2.54-.07s2,0,2.72.07a7.83,7.83,0,0,1,1.75.29,2.24,2.24,0,0,1,1,.59,2.69,2.69,0,0,1,.56.95Zm-28.6-54.33h-.06l-11.4,33h23Z" transform="translate(-19 -14)"/></g><line class="cls-11" x1="674" y1="329.98" x2="985" y2="329.98"/><line class="cls-11" x1="1665" y1="329.98" x2="1976" y2="329.98"/><g class="cls-9"><path class="cls-10" d="M777.28,257.34c0,.87,0,1.64-.09,2.3a9.78,9.78,0,0,1-.28,1.73,5.79,5.79,0,0,1-.54,1.31,7,7,0,0,1-1.15,1.4,24.29,24.29,0,0,1-3.45,2.51,42.16,42.16,0,0,1-6.54,3.29,54.17,54.17,0,0,1-9,2.71,51.61,51.61,0,0,1-11.06,1.11,48.53,48.53,0,0,1-18.7-3.45,37.79,37.79,0,0,1-14.23-10.2,46.4,46.4,0,0,1-9-16.65,75,75,0,0,1-3.17-22.81,75.16,75.16,0,0,1,3.42-23.6,51.06,51.06,0,0,1,9.57-17.55,41,41,0,0,1,14.76-11,49,49,0,0,1,28-2.92,58.72,58.72,0,0,1,8,2.18,36.84,36.84,0,0,1,6.58,3,22.64,22.64,0,0,1,4,2.84,9.36,9.36,0,0,1,1.44,1.69,5.59,5.59,0,0,1,.53,1.35,12.69,12.69,0,0,1,.33,1.85,23.33,23.33,0,0,1,.12,2.55,20.25,20.25,0,0,1-.16,2.8,7.93,7.93,0,0,1-.5,1.93,3,3,0,0,1-.78,1.15,1.72,1.72,0,0,1-1.12.37,6.21,6.21,0,0,1-3.22-1.6,53.37,53.37,0,0,0-5.33-3.54,42.73,42.73,0,0,0-7.94-3.53,34.6,34.6,0,0,0-11.2-1.61,29.13,29.13,0,0,0-12.93,2.84,27.22,27.22,0,0,0-10,8.34,41.09,41.09,0,0,0-6.41,13.45,73.81,73.81,0,0,0-.08,36,37.11,37.11,0,0,0,6.28,13,26.24,26.24,0,0,0,10,7.89A32.59,32.59,0,0,0,747,261.2a35.71,35.71,0,0,0,11.12-1.56,43.7,43.7,0,0,0,8.1-3.49q3.35-1.93,5.5-3.5a6.57,6.57,0,0,1,3.39-1.56,1.87,1.87,0,0,1,1,.25,1.75,1.75,0,0,1,.66.94,8.8,8.8,0,0,1,.37,1.93C777.23,255,777.28,256.08,777.28,257.34Z" transform="translate(-19 -14)"/><path class="cls-10" d="M875.69,267.42a10.25,10.25,0,0,1,.7,2.92,2,2,0,0,1-.62,1.68,3.91,3.91,0,0,1-2.18.74,39.27,39.27,0,0,1-4.07.17c-1.7,0-3,0-4.07-.13a9.2,9.2,0,0,1-2.3-.41,2.44,2.44,0,0,1-1.15-.78,6.34,6.34,0,0,1-.7-1.23l-9.12-25.9H807.94l-8.71,25.57a4.48,4.48,0,0,1-.66,1.27,3.24,3.24,0,0,1-1.19.91,7.21,7.21,0,0,1-2.22.53,34,34,0,0,1-3.74.17,29.68,29.68,0,0,1-3.91-.21,4,4,0,0,1-2.14-.78,2.06,2.06,0,0,1-.57-1.68,10.18,10.18,0,0,1,.7-2.92l35.68-98.83A4.51,4.51,0,0,1,822,167a3.65,3.65,0,0,1,1.56-.9,11.77,11.77,0,0,1,2.64-.45c1.06-.09,2.42-.13,4.07-.13s3.2,0,4.35.13a12.77,12.77,0,0,1,2.8.45,3.66,3.66,0,0,1,1.64.94,4.34,4.34,0,0,1,.91,1.52Zm-45.8-86.94h-.08l-18.32,53h37Z" transform="translate(-19 -14)"/><path class="cls-10" d="M964.24,269.82A2.6,2.6,0,0,1,964,271a1.91,1.91,0,0,1-1.06.83,9.4,9.4,0,0,1-2.28.49,36.86,36.86,0,0,1-3.91.16,29.33,29.33,0,0,1-3.45-.16,7.36,7.36,0,0,1-2.16-.54,2.88,2.88,0,0,1-1.26-1,6.43,6.43,0,0,1-.78-1.64L939.42,244q-1.71-4.28-3.54-7.86a25.47,25.47,0,0,0-4.36-6.17,17.81,17.81,0,0,0-5.94-4,21.14,21.14,0,0,0-8.22-1.44H908v45.34a1.84,1.84,0,0,1-.37,1.15,2.36,2.36,0,0,1-1.14.78,10.6,10.6,0,0,1-2.11.5,28.66,28.66,0,0,1-6.76,0,11.67,11.67,0,0,1-2.15-.5,2.1,2.1,0,0,1-1.14-.78,2,2,0,0,1-.33-1.15V171.24q0-3.21,1.67-4.48a5.73,5.73,0,0,1,3.54-1.28h22.38q4,0,6.64.21c1.76.13,3.35.28,4.76.45a40,40,0,0,1,10.78,3.37,25.86,25.86,0,0,1,7.86,5.84,23.82,23.82,0,0,1,4.76,8.11A30.49,30.49,0,0,1,958,193.54a30,30,0,0,1-1.43,9.59,23.23,23.23,0,0,1-4.11,7.48,27.13,27.13,0,0,1-6.43,5.64,40.91,40.91,0,0,1-8.38,4,20.29,20.29,0,0,1,4.72,2.92,25.2,25.2,0,0,1,3.95,4.24,39.37,39.37,0,0,1,3.45,5.68c1.09,2.14,2.17,4.55,3.26,7.24l9.44,23.45c.76,2,1.25,3.36,1.47,4.16A7.82,7.82,0,0,1,964.24,269.82ZM943.67,195.4a19.11,19.11,0,0,0-2.81-10.61q-2.8-4.33-9.41-6.24a26.85,26.85,0,0,0-4.67-.82q-2.6-.25-6.81-.25H908v36h13.87a30.72,30.72,0,0,0,9.7-1.36,19.28,19.28,0,0,0,6.82-3.8,14.79,14.79,0,0,0,4-5.74A19.74,19.74,0,0,0,943.67,195.4Z" transform="translate(-19 -14)"/><path class="cls-10" d="M999,269.73a2,2,0,0,1-.33,1.14,2.1,2.1,0,0,1-1.14.78,12.67,12.67,0,0,1-2.15.49,28.32,28.32,0,0,1-6.72,0,12.58,12.58,0,0,1-2.19-.49,2.1,2.1,0,0,1-1.14-.78,2,2,0,0,1-.33-1.14V168.64a1.83,1.83,0,0,1,.37-1.14,2.45,2.45,0,0,1,1.22-.77,14,14,0,0,1,2.19-.49A22.79,22.79,0,0,1,992,166a24.14,24.14,0,0,1,3.38.2,12.67,12.67,0,0,1,2.15.49,2.15,2.15,0,0,1,1.14.77,2,2,0,0,1,.33,1.14Z" transform="translate(-19 -14)"/><path class="cls-10" d="M1096.87,242.09a31.69,31.69,0,0,1-1.27,9.21,27,27,0,0,1-3.56,7.58,26.24,26.24,0,0,1-5.53,5.9,32.3,32.3,0,0,1-7.29,4.26,41.26,41.26,0,0,1-8.68,2.58,58.85,58.85,0,0,1-10.61.86h-27.69a5.79,5.79,0,0,1-3.56-1.27c-1.12-.85-1.68-2.33-1.68-4.46V172.21c0-2.13.56-3.61,1.68-4.46a5.79,5.79,0,0,1,3.56-1.27h24.09a55.89,55.89,0,0,1,15.56,1.8,27.65,27.65,0,0,1,10.12,5.24,21.82,21.82,0,0,1,6.1,8.44,29.69,29.69,0,0,1,2.05,11.31,28.43,28.43,0,0,1-.9,7.21,23.84,23.84,0,0,1-2.67,6.34,21.66,21.66,0,0,1-4.42,5.21,23.23,23.23,0,0,1-6.1,3.76,26,26,0,0,1,8.11,3,24.61,24.61,0,0,1,6.59,5.53,25.77,25.77,0,0,1,4.47,7.87A28.82,28.82,0,0,1,1096.87,242.09ZM1075.33,194a21.25,21.25,0,0,0-1.06-6.89,12.81,12.81,0,0,0-3.32-5.24,14.78,14.78,0,0,0-5.91-3.28,33.17,33.17,0,0,0-9.63-1.14H1041v34h15.87a22.47,22.47,0,0,0,8.74-1.42,15.86,15.86,0,0,0,5.51-3.81,14.9,14.9,0,0,0,3.19-5.6A21.7,21.7,0,0,0,1075.33,194Zm6.32,48.68a21.24,21.24,0,0,0-1.5-8.28,15.64,15.64,0,0,0-4.37-6,19.42,19.42,0,0,0-7.21-3.69,39.72,39.72,0,0,0-10.89-1.26H1041v37h20.25a27.48,27.48,0,0,0,8.34-1.14,18.57,18.57,0,0,0,6.27-3.36,15.44,15.44,0,0,0,4.25-5.56A18.14,18.14,0,0,0,1081.65,242.71Z" transform="translate(-19 -14)"/><path class="cls-10" d="M1177.61,266.52a18.37,18.37,0,0,1-.17,2.64,5.48,5.48,0,0,1-.57,1.89,2.77,2.77,0,0,1-.93,1.09,2.14,2.14,0,0,1-1.18.34h-50.55a5.64,5.64,0,0,1-3.54-1.3q-1.67-1.31-1.67-4.57V171.35q0-3.27,1.67-4.57a5.64,5.64,0,0,1,3.54-1.3h50a2.11,2.11,0,0,1,1.18.34,2.25,2.25,0,0,1,.85,1.09,8.21,8.21,0,0,1,.53,1.88,15.92,15.92,0,0,1,.21,2.82,14.71,14.71,0,0,1-.21,2.64,7.64,7.64,0,0,1-.53,1.85,2.3,2.3,0,0,1-.85,1,2.11,2.11,0,0,1-1.18.34H1133v34h34.33a2,2,0,0,1,.76.13,2.71,2.71,0,0,1,1.27,1.22,5.06,5.06,0,0,1,.52,1.74,19.61,19.61,0,0,1,.16,2.61,17,17,0,0,1-.16,2.45,4.92,4.92,0,0,1-.52,1.66,2.08,2.08,0,0,1-.87.91,2.29,2.29,0,0,1-1.14.28H1133v38h41.76a2.21,2.21,0,0,1,1.18.33,3,3,0,0,1,.93,1.05,5.17,5.17,0,0,1,.57,1.85A19.93,19.93,0,0,1,1177.61,266.52Z" transform="translate(-19 -14)"/><path class="cls-10" d="M1279,267.42a10.25,10.25,0,0,1,.7,2.92A2,2,0,0,1,1279,272a3.88,3.88,0,0,1-2.17.74,39.41,39.41,0,0,1-4.07.17c-1.7,0-3.06,0-4.07-.13a9.29,9.29,0,0,1-2.31-.41,2.44,2.44,0,0,1-1.15-.78,6.34,6.34,0,0,1-.69-1.23l-9.13-25.9h-44.23l-8.72,25.57a4,4,0,0,1-.66,1.27,3.16,3.16,0,0,1-1.19.91,7.21,7.21,0,0,1-2.22.53,34,34,0,0,1-3.74.17,29.41,29.41,0,0,1-3.9-.21,4,4,0,0,1-2.14-.78,2.06,2.06,0,0,1-.58-1.68,10.18,10.18,0,0,1,.7-2.92l35.68-98.83a4.36,4.36,0,0,1,.87-1.48,3.54,3.54,0,0,1,1.56-.9,11.57,11.57,0,0,1,2.63-.45c1.07-.09,2.42-.13,4.07-.13s3.21,0,4.36.13a12.67,12.67,0,0,1,2.79.45,3.76,3.76,0,0,1,1.65.94,4.47,4.47,0,0,1,.9,1.52Zm-45.79-86.94h-.08l-18.33,53h37Z" transform="translate(-19 -14)"/><path class="cls-10" d="M1377,266.55a6.05,6.05,0,0,1-.55,2.72,5.31,5.31,0,0,1-1.43,1.85,5.54,5.54,0,0,1-2,1,7.9,7.9,0,0,1-2.19.32h-4.42a14.93,14.93,0,0,1-3.88-.45,8.7,8.7,0,0,1-3.15-1.65,16.5,16.5,0,0,1-3-3.25,42,42,0,0,1-3.16-5.26l-32.48-60.56q-2.55-4.69-5.14-9.83t-4.81-10h-.17q.16,5.93.25,12.09t.08,12.26v64.72a2,2,0,0,1-.34,1.11,2.16,2.16,0,0,1-1.16.82,12,12,0,0,1-2.15.49,27.55,27.55,0,0,1-6.79,0,10.93,10.93,0,0,1-2.1-.49,2.13,2.13,0,0,1-1.12-.82,2,2,0,0,1-.34-1.11v-98c0-2.18.61-3.74,1.85-4.67a6.54,6.54,0,0,1,4-1.4h6.89a17.25,17.25,0,0,1,4.07.41,8.26,8.26,0,0,1,2.94,1.36,11.56,11.56,0,0,1,2.53,2.62,35,35,0,0,1,2.55,4.23l24.7,46.62c1.53,2.84,3,5.62,4.41,8.33s2.78,5.37,4.09,8,2.61,5.21,3.89,7.76,2.56,5.1,3.82,7.67h.47q-.16-6.33-.2-13.19t0-13.18V170.83a1.75,1.75,0,0,1,.34-1,2.79,2.79,0,0,1,1.16-.84,7.52,7.52,0,0,1,2.15-.52,29.66,29.66,0,0,1,3.48-.16,27.8,27.8,0,0,1,3.26.16,7,7,0,0,1,2.15.52,2.76,2.76,0,0,1,1.12.84,1.75,1.75,0,0,1,.34,1Z" transform="translate(-19 -14)"/><path class="cls-10" d="M1500.62,242.54a30.8,30.8,0,0,1-2.76,13.32,28.61,28.61,0,0,1-7.64,9.91,33.18,33.18,0,0,1-11.51,6.12,47.93,47.93,0,0,1-14.27,2.06,51.13,51.13,0,0,1-9.9-.91,53.1,53.1,0,0,1-8.14-2.22,38.29,38.29,0,0,1-6-2.71,15.84,15.84,0,0,1-3.38-2.39,6,6,0,0,1-1.39-2.5,14.42,14.42,0,0,1-.46-4.07,22.32,22.32,0,0,1,.17-3,7.37,7.37,0,0,1,.49-1.94,2,2,0,0,1,2-1.31,6.72,6.72,0,0,1,3.24,1.4,51.4,51.4,0,0,0,13.32,6.12,36.29,36.29,0,0,0,10.73,1.44,27.42,27.42,0,0,0,8.43-1.23,20,20,0,0,0,6.58-3.5,15.06,15.06,0,0,0,4.23-5.55,18,18,0,0,0,1.48-7.48,14,14,0,0,0-2.06-7.73,20.94,20.94,0,0,0-5.42-5.63,48.7,48.7,0,0,0-7.69-4.44l-8.84-4.11a98.12,98.12,0,0,1-8.79-4.64,37.26,37.26,0,0,1-7.65-6,27.85,27.85,0,0,1-5.47-8.1,26.85,26.85,0,0,1-2.09-11.14,27.87,27.87,0,0,1,2.42-11.88,24.49,24.49,0,0,1,6.74-8.75,30.14,30.14,0,0,1,10.28-5.39,43.28,43.28,0,0,1,12.87-1.85,42,42,0,0,1,7.11.62,49.21,49.21,0,0,1,6.74,1.64,37.8,37.8,0,0,1,5.63,2.31,14.53,14.53,0,0,1,3.25,2.05,6.55,6.55,0,0,1,1,1.23,5,5,0,0,1,.41,1.16,12.12,12.12,0,0,1,.25,1.68c0,.66.08,1.51.08,2.55a22.87,22.87,0,0,1-.13,2.63,9.46,9.46,0,0,1-.37,1.93,2.24,2.24,0,0,1-.7,1.15,1.55,1.55,0,0,1-1,.37,6.57,6.57,0,0,1-2.84-1.15c-1.29-.76-2.86-1.63-4.73-2.59a41.84,41.84,0,0,0-6.62-2.63,28.91,28.91,0,0,0-8.59-1.19,22.83,22.83,0,0,0-7.73,1.19,15.81,15.81,0,0,0-5.42,3.17,12.49,12.49,0,0,0-3.21,4.68,15.63,15.63,0,0,0-1.07,5.76,13.89,13.89,0,0,0,2.06,7.65,21.11,21.11,0,0,0,5.47,5.67,48.56,48.56,0,0,0,7.77,4.52q4.35,2.05,8.88,4.15t8.87,4.61a36.59,36.59,0,0,1,7.77,5.92,25.63,25.63,0,0,1,7.61,19Z" transform="translate(-19 -14)"/><path class="cls-10" d="M1579.61,266.52a18.37,18.37,0,0,1-.17,2.64,5.48,5.48,0,0,1-.57,1.89,2.77,2.77,0,0,1-.93,1.09,2.14,2.14,0,0,1-1.18.34h-50.55a5.64,5.64,0,0,1-3.54-1.3q-1.67-1.31-1.67-4.57V171.35q0-3.27,1.67-4.57a5.64,5.64,0,0,1,3.54-1.3h50a2.11,2.11,0,0,1,1.18.34,2.25,2.25,0,0,1,.85,1.09,8.21,8.21,0,0,1,.53,1.88,15.92,15.92,0,0,1,.21,2.82,14.71,14.71,0,0,1-.21,2.64,7.64,7.64,0,0,1-.53,1.85,2.3,2.3,0,0,1-.85,1,2.11,2.11,0,0,1-1.18.34H1535v34h34.33a2,2,0,0,1,.76.13,2.71,2.71,0,0,1,1.27,1.22,5.06,5.06,0,0,1,.52,1.74,19.61,19.61,0,0,1,.16,2.61,17,17,0,0,1-.16,2.45,4.92,4.92,0,0,1-.52,1.66,2.08,2.08,0,0,1-.87.91,2.29,2.29,0,0,1-1.14.28H1535v38h41.76a2.21,2.21,0,0,1,1.18.33,3,3,0,0,1,.93,1.05,5.17,5.17,0,0,1,.57,1.85A19.93,19.93,0,0,1,1579.61,266.52Z" transform="translate(-19 -14)"/><path class="cls-10" d="M1673.25,269.82A2.47,2.47,0,0,1,1673,271a1.89,1.89,0,0,1-1,.83,9.63,9.63,0,0,1-2.28.49,36.86,36.86,0,0,1-3.91.16,29.52,29.52,0,0,1-3.46-.16,7.36,7.36,0,0,1-2.16-.54,2.93,2.93,0,0,1-1.26-1,6.11,6.11,0,0,1-.77-1.64l-9.69-25.1q-1.71-4.28-3.54-7.86a25.19,25.19,0,0,0-4.36-6.17,17.81,17.81,0,0,0-5.94-4,21.14,21.14,0,0,0-8.22-1.44H1617v45.34a1.84,1.84,0,0,1-.37,1.15,2.36,2.36,0,0,1-1.14.78,10.6,10.6,0,0,1-2.11.5,28.66,28.66,0,0,1-6.76,0,12,12,0,0,1-2.16-.5,2.18,2.18,0,0,1-1.14-.78,2.09,2.09,0,0,1-.32-1.15V171.24q0-3.21,1.67-4.48a5.73,5.73,0,0,1,3.54-1.28h22.38q4,0,6.64.21c1.76.13,3.35.28,4.76.45a40.2,40.2,0,0,1,10.79,3.37,25.81,25.81,0,0,1,7.85,5.84,23.66,23.66,0,0,1,4.76,8.11,32.91,32.91,0,0,1,.17,19.67,23.44,23.44,0,0,1-4.12,7.48,27.13,27.13,0,0,1-6.43,5.64,40.66,40.66,0,0,1-8.38,4,20.08,20.08,0,0,1,4.72,2.92,24.8,24.8,0,0,1,4,4.24,40.3,40.3,0,0,1,3.46,5.68c1.08,2.14,2.17,4.55,3.25,7.24l9.45,23.45c.76,2,1.24,3.36,1.46,4.16A7.44,7.44,0,0,1,1673.25,269.82Zm-20.58-74.42a19.11,19.11,0,0,0-2.81-10.61q-2.8-4.33-9.41-6.24a26.9,26.9,0,0,0-4.66-.82q-2.61-.25-6.82-.25h-12v36h13.87a30.72,30.72,0,0,0,9.7-1.36,19.28,19.28,0,0,0,6.82-3.8,14.79,14.79,0,0,0,4-5.74A19.74,19.74,0,0,0,1652.67,195.4Z" transform="translate(-19 -14)"/><path class="cls-10" d="M1735.18,269.56a4.07,4.07,0,0,1-.9,1.49,4,4,0,0,1-1.6.9,11.77,11.77,0,0,1-2.64.45c-1.06.08-2.39.12-4,.12-1.21,0-2.26,0-3.17,0a15.67,15.67,0,0,1-4-.57,4.51,4.51,0,0,1-1.19-.54,2.42,2.42,0,0,1-.78-.78,5.76,5.76,0,0,1-.53-1.11l-34.78-98.82a10.25,10.25,0,0,1-.7-2.92,1.9,1.9,0,0,1,.7-1.69,4.73,4.73,0,0,1,2.38-.74c1.1-.1,2.58-.16,4.44-.16q2.31,0,3.66.12a7.17,7.17,0,0,1,2.1.46,2.59,2.59,0,0,1,1.11.86,7.42,7.42,0,0,1,.7,1.36l30.5,89.53h.08l29.68-89.37a6.61,6.61,0,0,1,.58-1.48,2.21,2.21,0,0,1,1.15-.9,8.39,8.39,0,0,1,2.3-.46c1-.08,2.3-.12,4-.12a30.06,30.06,0,0,1,4,.21,3.32,3.32,0,0,1,2,.78,2.05,2.05,0,0,1,.41,1.68,13.1,13.1,0,0,1-.78,2.92Z" transform="translate(-19 -14)"/><path class="cls-10" d="M1802,269.74a2.08,2.08,0,0,1-.32,1.14,2.23,2.23,0,0,1-1.14.77,13.06,13.06,0,0,1-2.16.49,28.32,28.32,0,0,1-6.72,0,13,13,0,0,1-2.2-.49,2.23,2.23,0,0,1-1.14-.77,2.08,2.08,0,0,1-.32-1.14V168.64a1.83,1.83,0,0,1,.37-1.14,2.45,2.45,0,0,1,1.22-.77,13.92,13.92,0,0,1,2.2-.49,21.16,21.16,0,0,1,3.21-.2,22.7,22.7,0,0,1,3.38.2,13.06,13.06,0,0,1,2.16.49,2.23,2.23,0,0,1,1.14.77,2.08,2.08,0,0,1,.32,1.14Z" transform="translate(-19 -14)"/><path class="cls-10" d="M1901.18,257.34c0,.87,0,1.64-.08,2.3a9.72,9.72,0,0,1-.29,1.73,6.28,6.28,0,0,1-.53,1.31,7.14,7.14,0,0,1-1.16,1.4,23.69,23.69,0,0,1-3.45,2.51,41.28,41.28,0,0,1-6.54,3.29,54.17,54.17,0,0,1-9,2.71,51.52,51.52,0,0,1-11.05,1.11,48.54,48.54,0,0,1-18.71-3.45,37.83,37.83,0,0,1-14.22-10.2,46.41,46.41,0,0,1-9-16.65,75,75,0,0,1-3.16-22.81,75.46,75.46,0,0,1,3.41-23.6,51.08,51.08,0,0,1,9.58-17.55,40.87,40.87,0,0,1,14.76-11,48.92,48.92,0,0,1,28-2.92,58.88,58.88,0,0,1,8.06,2.18,36.84,36.84,0,0,1,6.58,3,22.87,22.87,0,0,1,4,2.84,9.36,9.36,0,0,1,1.44,1.69,5.59,5.59,0,0,1,.54,1.35,16.11,16.11,0,0,1,.33,1.85,23.33,23.33,0,0,1,.12,2.55,20.08,20.08,0,0,1-.17,2.8,8,8,0,0,1-.49,1.93,2.88,2.88,0,0,1-.79,1.15,1.67,1.67,0,0,1-1.11.37,6.2,6.2,0,0,1-3.23-1.6,52.22,52.22,0,0,0-5.33-3.54,42.62,42.62,0,0,0-7.93-3.53,34.64,34.64,0,0,0-11.2-1.61,29.18,29.18,0,0,0-12.94,2.84,27.38,27.38,0,0,0-10,8.34,41.29,41.29,0,0,0-6.41,13.45,73.81,73.81,0,0,0-.08,36,37.11,37.11,0,0,0,6.28,13,26.27,26.27,0,0,0,10,7.89,32.52,32.52,0,0,0,13.47,2.67,35.64,35.64,0,0,0,11.11-1.56,43.7,43.7,0,0,0,8.1-3.49,62.74,62.74,0,0,0,5.5-3.5,6.57,6.57,0,0,1,3.39-1.56,1.82,1.82,0,0,1,1,.25,1.66,1.66,0,0,1,.66.94,8.24,8.24,0,0,1,.37,1.93A30.06,30.06,0,0,1,1901.18,257.34Z" transform="translate(-19 -14)"/><path class="cls-10" d="M1978.61,266.52a18.37,18.37,0,0,1-.17,2.64,5.48,5.48,0,0,1-.57,1.89,2.77,2.77,0,0,1-.93,1.09,2.14,2.14,0,0,1-1.18.34h-50.55a5.64,5.64,0,0,1-3.54-1.3q-1.67-1.31-1.67-4.57V171.35q0-3.27,1.67-4.57a5.64,5.64,0,0,1,3.54-1.3h50a2.11,2.11,0,0,1,1.18.34,2.25,2.25,0,0,1,.85,1.09,8.21,8.21,0,0,1,.53,1.88,15.92,15.92,0,0,1,.21,2.82,14.71,14.71,0,0,1-.21,2.64,7.64,7.64,0,0,1-.53,1.85,2.3,2.3,0,0,1-.85,1,2.11,2.11,0,0,1-1.18.34H1934v34h34.33a2,2,0,0,1,.76.13,2.71,2.71,0,0,1,1.27,1.22,5.06,5.06,0,0,1,.52,1.74,19.61,19.61,0,0,1,.16,2.61,17,17,0,0,1-.16,2.45,4.92,4.92,0,0,1-.52,1.66,2.08,2.08,0,0,1-.87.91,2.29,2.29,0,0,1-1.14.28H1934v38h41.76a2.21,2.21,0,0,1,1.18.33,3,3,0,0,1,.93,1.05,5.17,5.17,0,0,1,.57,1.85A19.93,19.93,0,0,1,1978.61,266.52Z" transform="translate(-19 -14)"/></g></svg>